<svg width="18" height="19" viewBox="0 0 18 19" fill="none" xmlns="http://www.w3.org/2000/svg">
<g opacity="0.7">
<path d="M15.75 5H13.3725L12 3.5H7.5V5H11.34L12.7125 6.5H15.75V15.5H3.75V8.75H2.25V15.5C2.25 16.325 2.925 17 3.75 17H15.75C16.575 17 17.25 16.325 17.25 15.5V6.5C17.25 5.675 16.575 5 15.75 5ZM6 11C6 13.07 7.68 14.75 9.75 14.75C11.82 14.75 13.5 13.07 13.5 11C13.5 8.93 11.82 7.25 9.75 7.25C7.68 7.25 6 8.93 6 11ZM9.75 8.75C10.9875 8.75 12 9.7625 12 11C12 12.2375 10.9875 13.25 9.75 13.25C8.5125 13.25 7.5 12.2375 7.5 11C7.5 9.7625 8.5125 8.75 9.75 8.75ZM3.75 5H6V3.5H3.75V1.25H2.25V3.5H0V5H2.25V7.25H3.75V5Z" fill="black"/>
</g>
</svg>
